<svg xmlns="http://www.w3.org/2000/svg" width="128" height="149" fill="none" xmlns:v="https://vecta.io/nano"><g clip-path="url(#A)"><path d="M56.097 147.877a32.56 32.56 0 0 1-12.34-3.13l-.54-.11c-.703.045-1.407.045-2.11 0h-.16c-3.66-.24-9.73-1.52-17.69-6.27-19.32-11.52-24.17-28.08-22.45-38.77 1-6.36 7.29-22 10.54-29.85-.1-.12-.19-.24-.28-.37a6.26 6.26 0 0 1-1-2.53 5.41 5.41 0 0 1-1.1-1c-.393.035-.787.035-1.18 0a7.68 7.68 0 0 1-5.13-2.5c-2.44-2.56-2.05-6.4 1-10.2v-.51a9.13 9.13 0 0 1-2.9-4v-.08c-1-3-.19-6.36 2.39-9.93.043-.54.117-1.078.22-1.61-1.79-5.95-8-29.33 3-36.08l.1-.06.1-.05a8.58 8.58 0 0 1 4.21-.81c.198.01.394.03.59.06 2.13.15 7.6 1 14.27 5.43a45.43 45.43 0 0 1 10.68 10 8.61 8.61 0 0 1 3 .93 8.5 8.5 0 0 1 5.49-1.72h.14a10.35 10.35 0 0 1 3.29.93c2.79-5.53 7.51-8.55 13-8.19a15.31 15.31 0 0 1 2.39.35 19.53 19.53 0 0 1 14 12c.629-.05 1.261-.05 1.89 0h.11a9.54 9.54 0 0 1 6.64 3.37 12.68 12.68 0 0 1 4.83-1.27 61.53 61.53 0 0 1 3.45-2.39c7.76-5 15.72-7.37 23-6.89a27.92 27.92 0 0 1 5.58.93 5.32 5.32 0 0 1 3 2c1.42 1.81 1.88 4.63 1.35 8.35-.842 5.732-2.673 11.274-5.41 16.38-1.242 2.271-2.728 4.4-4.43 6.35a10.82 10.82 0 0 1 .314 4.868c-.267 1.625-.901 3.169-1.854 4.512 1.8 1.9 3.56 5.18 3 10.52-.47 4.56-2.8 6.94-4.89 8.16a7.66 7.66 0 0 1-.182 3.006c-.26.98-.711 1.899-1.328 2.704-.55.862-1.315 1.565-2.22 2.041a5.87 5.87 0 0 1-2.94.669 6.23 6.23 0 0 1-2.69-.85l2.93 16.54c.5 2.15 3.76 18.51-7.61 31-4.026 4.648-8.956 8.429-14.49 11.11a55.79 55.79 0 0 1-13.4 4c-3.75 2.45-9 3.46-15.52 3l-.66-.04z" fill="#3e2e2e"/><path d="M97.337 127.337c-8.58 9.4-15.72 11.8-23.7 13.5a17.26 17.26 0 0 0 1.63-2.26l.53-.8a.78.78 0 0 0-.15-1.09.81.81 0 0 0-1.11.17c-.1.15-.22.31-.33.49s-.17.26-.26.4a13.13 13.13 0 0 1-3.19 3.69c-.607.455-1.257.85-1.94 1.18-2.201 1.016-4.578 1.594-7 1.7-1.27.06-2.59.06-4 0l-1.55-.1c-2.849-.185-5.662-.736-8.37-1.64a16.81 16.81 0 0 1-2.89-1.3c-1.437-.72-2.658-1.806-3.54-3.15a2.19 2.19 0 0 1-.13-.26c-.089-.17-.237-.301-.416-.369a.79.79 0 0 0-.977.358.79.79 0 0 0-.078.551 7.14 7.14 0 0 0 2 2.6h-.72c-2.9-.19-8.47-1.28-16-5.78-18.77-11.2-22-26.63-20.67-35 .033-.27.083-.537.15-.8l.06-.41a2.89 2.89 0 0 1 .11-.47c.14-.487.27-.997.39-1.53 0-.19.1-.38.16-.58l.33-1.08c.12-.37.24-.83.38-1.26l.38-1.17.52-1.53c.11-.3.21-.61.32-.92l.06-.16c.07-.22.15-.46.24-.7l1.31-3.6.42-1.13.21-.57.64-1.65.66-1.72c.14-.35.27-.7.41-1l1.3-3.29.39-1 .35-.88 1-2.35c.14-.31.26-.62.38-.9l.56-1.4c.1-.23.2-.45.27-.66.243.02.487.02.73 0h.15l.15-.06c3.33-1.34 4.23-3.78 4.23-5.64a4.5 4.5 0 0 0 2-1.8 11.05 11.05 0 0 0 4.67 1.49 8.62 8.62 0 0 0 6.29-2.22 6.29 6.29 0 0 0 4.27 2.2c.673.045 1.349-.023 2-.2a4.27 4.27 0 0 0 3.21 2.05 3.56 3.56 0 0 0 1.64-.28c.95 2.21 3.23 5.32 8.55 7.22 1.231.437 2.517.703 3.82.79 6 .4 10.83-3.08 13.26-5.25 1.13 1.84 2.51 2.83 4.12 2.94a5.72 5.72 0 0 0 4-1.56 4.74 4.74 0 0 0 3.33 2 4.4 4.4 0 0 0 3.06-1.07c3.19 4.79 6.47 7.32 9.75 7.54a6.75 6.75 0 0 0 4-1 4.9 4.9 0 0 0 1.51 1.32l1.07 5.51c0 .17.07.34.1.52l.88 4.88c0 .26.09.5.13.73l.56 3.13c.05.24.08.47.12.73l.78 4.48a.94.94 0 0 0 0 .29.34.34 0 0 1 0 .11 1.46 1.46 0 0 0 0 .31v.15c-.016.089-.016.181 0 .27 0 .29.08.49.09.58v.07s4.06 15.95-6.61 27.64zm26.5-103.99c-.59 4.08-2.85 14.16-9.52 21.35a9.03 9.03 0 0 0-1.68-1.92 7.81 7.81 0 0 0-4.71-1.92 9.26 9.26 0 0 0-2.52.17c-.07-.11-.14-.23-.22-.34a3.27 3.27 0 0 0-1.45-1.09c.02-.542-.13-1.077-.43-1.53-.23-.34-.538-.62-.898-.816a2.57 2.57 0 0 0-1.172-.314c-.432-.025-.866.005-1.29.09.17-2.57.2-6.34-1.16-8.71a.63.63 0 0 0-.06-.11 4.29 4.29 0 0 0-.48-.72 9.46 9.46 0 0 0-4.3-3.15c5.5-4 14-8.69 23.36-8.08 1.691.099 3.368.377 5 .83 0 0 2.38.31 1.53 6.26zM11.057 3.797a5.31 5.31 0 0 0-2.76.34c-7.11 4.38-4.49 20.76-1.77 30.48a6.58 6.58 0 0 1 .83-1.06 4.71 4.71 0 0 1 1.51-1 5.91 5.91 0 0 1 2.53-.44 9 9 0 0 1 .91-5.33 7 7 0 0 1 4.9-3.33 5 5 0 0 1 1.38-.11 7.15 7.15 0 0 1 4.66 2.59 3 3 0 0 1 1.25-.24 3.54 3.54 0 0 1 .82-1.68 2.93 2.93 0 0 1 2.41-.86h.4c.172-.603.399-1.189.68-1.75a7.66 7.66 0 0 1 .91-1.38 6.56 6.56 0 0 1 3.62-2.26c-8.16-10.39-17.56-13.65-22.28-13.97z" fill="#e8dccd"/><path d="M29.717 20.067a7.44 7.44 0 0 0-.9 1.38c-.29.558-.521 1.144-.69 1.75h-.4a2.93 2.93 0 0 0-2.41.86 3.54 3.54 0 0 0-.82 1.64 3 3 0 0 0-1.25.24 7.15 7.15 0 0 0-4.66-2.59c-.463-.029-.927.008-1.38.11a7 7 0 0 0-4.9 3.33 9 9 0 0 0-.91 5.33 5.76 5.76 0 0 0-2.53.44c-2.65-8.8-4.67-19.69 1.41-23.45 1.88-1.15 10.56.84 19.44 10.96zm90.8 6.41c-.94 3.27-3 10.38-7.89 16.31a7.81 7.81 0 0 0-4.71-1.92 9.26 9.26 0 0 0-2.52.17c-.06-.119-.13-.233-.21-.34-.375-.488-.876-.865-1.45-1.09.011-.541-.139-1.074-.43-1.53a2.57 2.57 0 0 0-2.08-1.13 5.6 5.6 0 0 0-1.29.09c.17-2.57.14-6.45-1.22-8.82 6.07-5.63 13.5-9.88 21-7.77.02 0 2.17 1.23.8 6.03z" fill="#e38569"/><path d="M110.237 56.787s4.71-3.28 4-8c.024-.082.024-.168 0-.25-.045-.165-.082-.332-.11-.5l-.21-.67-.19-.48-.12-.23v-.07c0-.1-.11-.22-.18-.34l-.22-.38-.41-.62c-.14-.2-.2-.27-.31-.39l-.33-.37c-.096-.114-.199-.221-.31-.32a.78.78 0 0 0-.17-.15c-.394-.343-.827-.638-1.29-.88l-.38-.12c-.423-.183-.866-.317-1.32-.4h-.32-.1-.43a8.34 8.34 0 0 0-3.7.64c.48-2-1.53-2.25-2.07-2.29h-.13c.6-1.69 0-2.24-.8-2.3a7.79 7.79 0 0 0-3 .81 31.65 31.65 0 0 0 .27-3.2v-.48a4.67 4.67 0 0 0 0-1v-.52c.03-.353.03-.707 0-1.06.015-.196.015-.394 0-.59a14.09 14.09 0 0 0-.23-1.45c0-.14-.06-.28-.1-.41a3.19 3.19 0 0 0-.13-.44c-.087-.284-.194-.561-.32-.83-.08-.169-.17-.332-.27-.49a2 2 0 0 0-.24-.33l-.59-.66a3.87 3.87 0 0 0-.28-.29l-.3-.27-.27-.23-.25-.21c-.097-.082-.2-.156-.31-.22l-.33-.22-.32-.19-.3-.15c-.323-.149-.657-.273-1-.37l-.3-.07-.58-.11h-.39-.41-.41c-.13-.01-.26-.01-.39 0h-.3-.2l-.64.14c-.548.156-1.081.363-1.59.62l-.47.23-.51.31-.23.14-.65.45-.34.26a3.54 3.54 0 0 0-.42.35l-.12.09-.33.3c-1.11-3.85-3.49-5-5.64-5.1a9.6 9.6 0 0 0-4.17.76s-1.83-10.45-12.29-12.8c-.586-.137-1.181-.231-1.78-.28-8.92-.58-11 10.68-11 10.68a13.73 13.73 0 0 0-2.34-2.23l.12 3.4a.77.77 0 0 1-.204.563.77.77 0 0 1-.546.247h-.09a.79.79 0 0 1-.74-.77l-.2-4.35a4.43 4.43 0 0 0-2.06-.31l.17 4.42a.79.79 0 0 1-.75.82h-.07a.77.77 0 0 1-.72-.76l-.16-4a7.1 7.1 0 0 0-2.7 2.79 5.33 5.33 0 0 0-3.32-2.37 5.81 5.81 0 0 0-.71-.11h-.32a7.3 7.3 0 0 0-.94 0 5 5 0 0 0-3.64 2.07 8.21 8.21 0 0 0-1.42 4.08 4.2 4.2 0 0 0-1.71-.62c-2.15-.14-1.78 3.19-1.78 3.19a1.81 1.81 0 0 0-2.54-.29 1.77 1.77 0 0 0-.39.43s-1.87-3-4.45-3.16c-.318-.022-.638.002-.95.07-6.74 1.44-4.12 9.13-4.12 9.13-.629-.222-1.285-.359-1.95-.41a4 4 0 0 0-2.14.35 4.44 4.44 0 0 0-2.09 2.9 10.15 10.15 0 0 0-.36 3 2.22 2.22 0 0 0-.19.24c-6.69 8.61 1.87 10.86 1.87 10.86a3.17 3.17 0 0 0-1 3.38s-4.21 4.24-2.16 6.31a4 4 0 0 0 2.69 1.35 5.09 5.09 0 0 0 3.54-1.43c-.57 2.83.68 3.39 1.58 3.45.265.017.531-.003.79-.06-.61 2.24-.12 3.19.52 3.62a2 2 0 0 0 .88.27 2.55 2.55 0 0 0 .48 0l.31-.13c3.89-1.76 2.76-5.19 2.76-5.19a3.25 3.25 0 0 0 2.88-3.08 10.73 10.73 0 0 0 5.64 2.32 7.43 7.43 0 0 0 6.36-3.09c1.4 2.29 3 3 4.25 3.07a4.5 4.5 0 0 0 2.51-.6c.9 1.79 1.83 2.4 2.65 2.45a3.26 3.26 0 0 0 2.42-1.37s.28 5.59 8.19 8.42c1.096.39 2.24.629 3.4.71 7.68.49 13.53-6.4 13.53-6.4 1.16 3 2.54 4 3.8 4 2.2.15 4.11-2.48 4.11-2.48 1.13 2.07 2.24 2.79 3.22 2.86 1.84.12 3.2-2.1 3.2-2.1 3.87 6.53 7.2 8.37 9.62 8.53a5.35 5.35 0 0 0 4.27-1.73c.143.325.31.64.5.94.205.386.489.725.833.994s.743.462 1.167.566a1.73 1.73 0 0 0 .32 0 3.21 3.21 0 0 0 2.15-.81s1.74 3.42 3.71 3.55a2.21 2.21 0 0 0 1.122-.311 2.2 2.2 0 0 0 .808-.838 3.87 3.87 0 0 0 .816-3.151 3.86 3.86 0 0 0-.645-1.537 3.87 3.87 0 0 0-1.231-1.123 6.5 6.5 0 0 0 2.547-.381 6.49 6.49 0 0 0 2.2-1.34c.636-.589 1.149-1.299 1.506-2.089a6.5 6.5 0 0 0 .577-2.51c.79-8.04-5.15-9.27-5.15-9.27zm-88-7.35c-.4 0-4.69-.36-6.61-2.75-.131-.16-.248-.33-.35-.51a3.32 3.32 0 0 1-.53-2.16 2.61 2.61 0 0 1 .18-.78 3.77 3.77 0 0 1 .34-.7 3.56 3.56 0 0 1 .73-.87.78.78 0 0 1 .576-.183.78.78 0 0 1 .534.283.79.79 0 0 1-.1 1.05 1.86 1.86 0 0 0-.37.42 2.25 2.25 0 0 0-.33.7 1.87 1.87 0 0 0 0 .91 2.68 2.68 0 0 0 .47.86 5.46 5.46 0 0 0 2.53 1.6 11.82 11.82 0 0 0 2.94.6.79.79 0 0 1 .619.178.79.79 0 0 1 .281.579.79.79 0 0 1-.243.596.79.79 0 0 1-.606.217h-.15l.09-.04zm9.5 7.3c0 .06-.05.12-.08.17-.63 1.09-2.52 1.18-4.21.2a4.75 4.75 0 0 1-1.06-.78 3.55 3.55 0 0 1-1-1.66 1.78 1.78 0 0 1 .16-1.28c.63-1.09 2.51-1.19 4.2-.21a4.46 4.46 0 0 1 1.91 2 2 2 0 0 1 .06 1.56h.02zm2.63-2.2c-.31.53-1.25.58-2.1.09s-1.27-1.32-1-1.86 1.26-.63 2.1-.11 1.28 1.31 1 1.86v.02zm2.19-18.63a7.6 7.6 0 0 1-4 1.08 1.78 1.78 0 0 1-.32 0 3.67 3.67 0 0 1-1.4-.46 3.72 3.72 0 0 1-1.14-1c-.165-.211-.312-.435-.44-.67s-.241-.487-.34-.74a8.21 8.21 0 0 1-.49-2.39.79.79 0 0 1 .74-.84.79.79 0 0 1 .84.74 6.5 6.5 0 0 0 .22 1.32 4.46 4.46 0 0 0 .28.8c.1.249.231.484.39.7a2.54 2.54 0 0 0 .76.7 3.34 3.34 0 0 0 2.8 0 10.55 10.55 0 0 0 1.33-.59.78.78 0 0 1 .292-.089c.102-.01.206 0 .304.03s.19.079.27.144.145.145.194.236a.78.78 0 0 1 .059.596c-.03.098-.078.19-.144.27s-.145.145-.236.194l.03-.03zm18.87 16.78a.76.76 0 0 1-.67.3.73.73 0 0 1-.43-.16l-2.39-1.81c-.976.577-2.046.98-3.16 1.19l-1.63 2.81a.78.78 0 0 1-.74.39 1 1 0 0 1-.34-.09.8.8 0 0 1-.28-1.08l1.1-1.9h-.4a10.77 10.77 0 0 1-2.2-.38c-4.09-1.15-5.73-3.25-6.39-4.84a6 6 0 0 1-.41-3.31.79.79 0 0 1 .909-.536.79.79 0 0 1 .631.846c0 .21-.78 4.5 5.7 6.31a8.37 8.37 0 0 0 9.13-3.15.79.79 0 0 1 1.074-.184.79.79 0 0 1 .236 1.064c-.534.7-1.16 1.326-1.86 1.86l2 1.53a.79.79 0 0 1 .14 1.1l-.02.04zm33.44-10.79a.86.86 0 0 1-.39.34 1.53 1.53 0 0 1-.79.12 1.73 1.73 0 0 1-.6-.11 1 1 0 0 1-.24-.07 3.47 3.47 0 0 1-.62-.28c-1.09-.63-1.68-1.65-1.28-2.28a1.31 1.31 0 0 1 1.4-.44c.279.04.552.117.81.23a3.27 3.27 0 0 1 .89.51 2.86 2.86 0 0 1 .4.38 1.41 1.41 0 0 1 .42 1.59v.01zm1.14-5.32a2.29 2.29 0 0 1-2.27.84c-.275-.02-.546-.07-.81-.15a5 5 0 0 1-.8-.27c-.279-.11-.55-.24-.81-.39-1.94-1.11-3-2.93-2.32-4.06.46-.81 1.66-1 3-.72.261.068.518.152.77.25.272.105.536.228.79.37l.11.07c1.93 1.1 3 2.91 2.33 4l.01.06zm13.46 30.93a7.62 7.62 0 0 1-3.46.61 7.79 7.79 0 0 1-4.53-1.89.79.79 0 0 1 0-1.11.78.78 0 0 1 1 0 6 6 0 0 0 6.31 1c3.48-1.43 2.86-5.19 2.83-5.35a.79.79 0 0 1 .147-.563c.118-.162.294-.273.492-.31a.79.79 0 0 1 .911.583c.274 1.434.048 2.919-.64 4.208a6.39 6.39 0 0 1-3.14 2.873l.08-.05z" fill="#d6ba9b"/><path d="M31.717 56.737c0 .06-.05.12-.08.17-.63 1.09-2.52 1.18-4.21.2a4.75 4.75 0 0 1-1.06-.78 3.55 3.55 0 0 1-1-1.66 1.78 1.78 0 0 1 .16-1.28c.63-1.09 2.51-1.19 4.2-.21a4.46 4.46 0 0 1 1.91 2 2 2 0 0 1 .08 1.56zm58.29-20.17a2.32 2.32 0 0 1-2.27.84 5.5 5.5 0 0 1-.81-.15 4.2 4.2 0 0 1-.8-.28 6 6 0 0 1-.81-.39c-1.94-1.11-3-2.92-2.32-4.06.46-.8 1.66-1 3-.71.262.06.52.14.77.24a6.35 6.35 0 0 1 .79.38l.11.06c1.91 1.12 2.93 2.93 2.34 4.07zm-1.14 5.32a.86.86 0 0 1-.39.34 1.77 1.77 0 0 1-.79.12 2.44 2.44 0 0 1-.6-.11 1 1 0 0 1-.24-.08c-.215-.069-.423-.16-.62-.27-1.09-.64-1.68-1.66-1.28-2.28a1.32 1.32 0 0 1 1.4-.44 2.51 2.51 0 0 1 .81.23c.15.052.294.119.43.2.159.091.313.191.46.3.144.119.281.246.41.38a1.44 1.44 0 0 1 .41 1.61zm-54.51 12.63c-.32.54-1.26.59-2.11.1s-1.27-1.33-1-1.86 1.26-.64 2.1-.11 1.32 1.37 1.01 1.87z" fill="#e8dccd"/><path d="M36.537 35.897a7.6 7.6 0 0 1-4 1.08h-.32a3.69 3.69 0 0 1-1.4-.47 3.6 3.6 0 0 1-1.14-1c-.167-.209-.314-.434-.44-.67a5.56 5.56 0 0 1-.34-.74 8.07 8.07 0 0 1-.49-2.39.78.78 0 0 1 .207-.561.78.78 0 0 1 .543-.25.8.8 0 0 1 .81.76c.034.446.108.887.22 1.32a4.75 4.75 0 0 0 .28.8 4 4 0 0 0 .39.7 2.39 2.39 0 0 0 .76.69 3.27 3.27 0 0 0 2.8 0 9.28 9.28 0 0 0 1.33-.59.79.79 0 0 1 1.01.354.79.79 0 0 1-.27 1.036l.05-.07zm66.9 31.6a7.6 7.6 0 0 1-3.46.61 7.79 7.79 0 0 1-4.52-1.89.79.79 0 0 1-.233-.56.79.79 0 0 1 .233-.56.8.8 0 0 1 1 0 6 6 0 0 0 6.3 1c3.48-1.44 2.86-5.19 2.83-5.35a.79.79 0 0 1 .147-.563c.118-.162.294-.273.492-.31a.79.79 0 0 1 .911.583c.268 1.419.048 2.886-.624 4.165s-1.755 2.291-3.076 2.876zm-80.36-18.79a.78.78 0 0 1-.263.537.78.78 0 0 1-.567.193c-.4 0-4.69-.36-6.61-2.75a3.53 3.53 0 0 1-.35-.51 3.38 3.38 0 0 1-.52-2.16 3.07 3.07 0 0 1 .19-.78 4.93 4.93 0 0 1 .33-.7 3.84 3.84 0 0 1 .74-.87.78.78 0 0 1 .576-.183.78.78 0 0 1 .534.283.8.8 0 0 1-.07 1.08c-.147.121-.272.267-.37.43-.149.209-.261.443-.33.69a2 2 0 0 0 0 .91 2.6 2.6 0 0 0 .48.86 5.46 5.46 0 0 0 2.53 1.6 11.39 11.39 0 0 0 2.94.6.78.78 0 0 1 .76.77zm32.35 3.96a.77.77 0 0 1-.67.31.81.81 0 0 1-.43-.16l-2.39-1.8a9.52 9.52 0 0 1-3.16 1.18l-1.62 2.82a.82.82 0 0 1-.75.39 1 1 0 0 1-.34-.1.79.79 0 0 1-.28-1.08l1.1-1.9h-.4a10.24 10.24 0 0 1-2.2-.38c-4.09-1.14-5.73-3.24-6.39-4.84a5.92 5.92 0 0 1-.41-3.3.8.8 0 0 1 .93-.61.78.78 0 0 1 .59.82c0 .2-.79 4.5 5.69 6.31a8.4 8.4 0 0 0 9.13-3.15.79.79 0 0 1 1.05-.159.79.79 0 0 1 .26 1.029c-.518.737-1.133 1.4-1.83 1.97l2 1.53a.78.78 0 0 1 .15 1.09l-.03.03z" fill="#3e2e2e"/><path d="M48.827 79.907A14.57 14.57 0 0 0 33.8 69.119a14.57 14.57 0 0 0-13.499 12.648 14.57 14.57 0 0 0 9.788 15.696 14.57 14.57 0 0 0 17.297-6.556 14.59 14.59 0 0 0 1.44-11zm-11 5.56a3.67 3.67 0 0 1-3.41 1.81 3.77 3.77 0 0 1-1.58-.47 3.65 3.65 0 0 1-1.792-2.932 3.65 3.65 0 0 1 1.438-3.121 3.65 3.65 0 0 1 3.394-.543 3.65 3.65 0 0 1 2.34 2.517 3.51 3.51 0 0 1-.39 2.74z" fill="#fff"/><path d="M50.377 79.487a16.11 16.11 0 0 0-16.615-11.903 16.11 16.11 0 0 0-14.917 13.973 16.11 16.11 0 0 0 10.793 17.357 16.11 16.11 0 0 0 19.13-7.197 16.14 16.14 0 0 0 1.61-12.23zm-3 11.43a14.64 14.64 0 0 1-14.581 7.168 14.64 14.64 0 0 1-12.219-10.708 14.46 14.46 0 0 1 1.44-11 14.62 14.62 0 0 1 19.96-5.4 14.62 14.62 0 0 1 5.4 19.96v-.02zm-9.51-5.45a3.67 3.67 0 0 1-3.41 1.81 3.77 3.77 0 0 1-1.58-.47 3.65 3.65 0 0 1-1.792-2.932 3.65 3.65 0 0 1 1.438-3.121 3.65 3.65 0 0 1 3.394-.543 3.65 3.65 0 0 1 2.34 2.517 3.51 3.51 0 0 1-.39 2.74zm55.87-1.92a16.12 16.12 0 0 0-16.625-11.914 16.12 16.12 0 0 0-14.928 13.982 16.12 16.12 0 0 0 10.801 17.369c3.532 1.198 7.37 1.135 10.86-.179a16.12 16.12 0 0 0 8.282-7.027 16.13 16.13 0 0 0 1.61-12.23zm-2.98 11.47a14.58 14.58 0 0 1-14.536 7.173 14.58 14.58 0 0 1-12.182-10.694 14.58 14.58 0 0 1 5.231-15.343 14.58 14.58 0 0 1 16.178-1.026 14.64 14.64 0 0 1 5.31 19.89z" fill="#3e2e2e"/><path d="M92.217 83.957A14.59 14.59 0 0 0 77.191 73.12a14.59 14.59 0 0 0-13.543 12.641 14.59 14.59 0 0 0 9.777 15.736 14.59 14.59 0 0 0 17.333-6.541 14.39 14.39 0 0 0 1.46-11zm-10.92 5.57a3.66 3.66 0 0 1-3.643 1.794 3.66 3.66 0 0 1-3.057-2.674 3.58 3.58 0 0 1 .41-2.77 3.66 3.66 0 0 1 4.933-1.237 3.66 3.66 0 0 1 1.407 4.887h-.05z" fill="#fff"/><path d="M81.297 89.527a3.66 3.66 0 0 1-3.643 1.794 3.66 3.66 0 0 1-3.057-2.674 3.58 3.58 0 0 1 .41-2.77 3.66 3.66 0 0 1 4.933-1.237 3.66 3.66 0 0 1 1.407 4.887h-.05zm-11.2 25.58c-.664 1.607-1.766 2.997-3.18 4.01s-3.084 1.608-4.82 1.72a8.13 8.13 0 0 1-1.56 0 6.1 6.1 0 0 1-3.129-1.013 6.11 6.11 0 0 1-2.151-2.487c-.595 1.001-1.461 1.814-2.497 2.345a6.18 6.18 0 0 1-3.363.655 8.64 8.64 0 0 1-1.32-.19 9.24 9.24 0 0 1-4.615-2.201 9.23 9.23 0 0 1-2.735-4.319.77.77 0 0 1-.011-.303.76.76 0 0 1 .107-.283c.054-.087.125-.162.208-.221s.177-.101.277-.123c.204-.045.418-.007.594.106a.79.79 0 0 1 .346.494c.429 1.372 1.233 2.596 2.322 3.534s2.418 1.554 3.838 1.776c1.251.365 2.595.22 3.739-.404a4.92 4.92 0 0 0 2.361-2.926c-.005-.05-.005-.1 0-.15l-.07-8.41a10.27 10.27 0 0 1-4-2.66c-2-2-4.66-5.55-4.24-7.33.61-2.52 3.77-3.73 8.67-3.31 1.44 0 8.18 0 8.66 3.13s-4 9.3-7.47 10.21l.07 8.32v.15a4.85 4.85 0 0 0 1.518 2.862c.819.752 1.872 1.199 2.982 1.268.419.045.841.045 1.26 0a7.72 7.72 0 0 0 3.992-1.377c1.177-.822 2.101-1.955 2.668-3.273a.77.77 0 0 1 .147-.27c.066-.079.148-.144.24-.191s.193-.075.296-.082a.77.77 0 0 1 .304.04c.098.033.188.086.265.155a.78.78 0 0 1 .184.246c.044.094.069.195.073.299s-.013.206-.049.303l.09-.1z" fill="#3e2e2e"/><g fill="#e38569"><path d="M82.909 115.1c4.587-.147 8.238-2.379 8.154-4.984s-3.87-4.598-8.457-4.451-8.238 2.379-8.154 4.984 3.87 4.598 8.457 4.451zm-47.221-8.618c.283-2.592-3.115-5.088-7.59-5.577s-8.331 1.216-8.614 3.808 3.115 5.088 7.59 5.576 8.331-1.216 8.614-3.807z"/></g></g><defs><clipPath id="A"><path fill="#fff" d="M0 0h127.691v148.025H0z"/></clipPath></defs></svg>